<svg width="43" height="43" viewBox="0 0 43 43" fill="none" xmlns="http://www.w3.org/2000/svg">
<path opacity="0.01" fill-rule="evenodd" clip-rule="evenodd" d="M0 43V0H43V43H0Z" fill="#494949"/>
<path fill-rule="evenodd" clip-rule="evenodd" d="M36.3783 14.2069C36.9759 14.8046 37.0612 15.6585 36.3783 16.3415L31.2563 21.7209L36.3783 27.1003C37.0612 27.8688 36.9759 28.6373 36.3783 29.235C35.7807 29.8327 34.7563 29.8327 34.1588 29.235C33.5612 28.6373 28.0123 22.831 28.0123 22.831C27.6708 22.5748 27.5855 22.1479 27.5855 21.7209C27.5855 21.294 27.7562 20.9525 28.0123 20.6109C28.0123 20.6109 33.5612 14.7192 34.1588 14.2069C34.7563 13.6945 35.7807 13.6091 36.3783 14.2069Z" fill="#494949" stroke="white" stroke-width="1.5"/>
</svg>
