<svg width="26" height="24" viewBox="0 0 26 24" fill="none" xmlns="http://www.w3.org/2000/svg">
  <path fill-rule="evenodd" clip-rule="evenodd" d="M10.8514 0.985291C10.2663 0.985291 9.71987 1.27772 9.3953 1.76457L7.04786 5.28573C7.00149 5.35528 6.92343 5.39706 6.83985 5.39706H2.49268C1.52618 5.39706 0.742676 6.18056 0.742676 7.14706V21.3235C0.742676 22.29 1.52618 23.0735 2.49268 23.0735H24.0221C24.9886 23.0735 25.7721 22.29 25.7721 21.3235V7.14706C25.7721 6.18056 24.9886 5.39706 24.0221 5.39706H19.6749C19.5913 5.39706 19.5133 5.35528 19.4669 5.28573L17.1195 1.76457C16.7949 1.27772 16.2485 0.985291 15.6634 0.985291H10.8514ZM10.6434 2.59662C10.6897 2.52707 10.7678 2.48529 10.8514 2.48529H15.6634C15.747 2.48529 15.825 2.52707 15.8714 2.59662L18.2188 6.11778C18.5434 6.60463 19.0898 6.89706 19.6749 6.89706H24.0221C24.1602 6.89706 24.2721 7.00898 24.2721 7.14706V21.3235C24.2721 21.4616 24.1602 21.5735 24.0221 21.5735H2.49268C2.3546 21.5735 2.24268 21.4616 2.24268 21.3235V7.14706C2.24268 7.00898 2.3546 6.89706 2.49268 6.89706H6.83985C7.42496 6.89706 7.97137 6.60463 8.29593 6.11778L10.6434 2.59662ZM17.0512 13.3529C17.0512 15.4484 15.3525 17.147 13.2571 17.147C11.1617 17.147 9.46298 15.4484 9.46298 13.3529C9.46298 11.2575 11.1617 9.55881 13.2571 9.55881C15.3525 9.55881 17.0512 11.2575 17.0512 13.3529ZM18.5512 13.3529C18.5512 16.2768 16.181 18.647 13.2571 18.647C10.3332 18.647 7.96298 16.2768 7.96298 13.3529C7.96298 10.4291 10.3332 8.05881 13.2571 8.05881C16.181 8.05881 18.5512 10.4291 18.5512 13.3529Z" fill="#BDBDBD"/>
</svg>
