<svg width="15" height="20" viewBox="0 0 15 20" fill="none" xmlns="http://www.w3.org/2000/svg">
<path fill-rule="evenodd" clip-rule="evenodd" d="M1.23266 5.82859C1.23266 2.57135 4.00367 0 7.33429 0C10.6649 0 13.4359 2.57135 13.4359 5.82859V6.63765C14.1696 7.03262 14.6683 7.8078 14.6683 8.69945V17.0088C14.6683 18.3012 13.6207 19.3488 12.3283 19.3488H2.34C1.04765 19.3488 0 18.3012 0 17.0088V8.69945C0 7.8077 0.498824 7.03245 1.23266 6.63752V5.82859ZM11.8759 5.82859V6.35945H2.79266V5.82859C2.79266 3.50931 4.7868 1.56 7.33429 1.56C9.88178 1.56 11.8759 3.50931 11.8759 5.82859ZM2.34 7.91945C1.90922 7.91945 1.56 8.26867 1.56 8.69945V17.0088C1.56 17.4396 1.90922 17.7888 2.34 17.7888H12.3283C12.7591 17.7888 13.1083 17.4396 13.1083 17.0088V8.69945C13.1083 8.26867 12.7591 7.91945 12.3283 7.91945H2.34ZM7.33417 10.6976C6.62277 10.6976 6.04607 11.2743 6.04607 11.9857V13.7225C6.04607 14.4339 6.62277 15.0106 7.33417 15.0106C8.04557 15.0106 8.62227 14.4339 8.62227 13.7225V11.9857C8.62227 11.2743 8.04557 10.6976 7.33417 10.6976Z" fill="url(#paint0_linear_495_912)"/>
<defs>
<linearGradient id="paint0_linear_495_912" x1="7.33417" y1="0" x2="7.33417" y2="19.3488" gradientUnits="userSpaceOnUse">
<stop stop-color="#BA00FF"/>
<stop offset="1" stop-color="#0031AA"/>
</linearGradient>
</defs>
</svg>
