<svg width="22" height="23" viewBox="0 0 22 23" fill="none" xmlns="http://www.w3.org/2000/svg">
<path fill-rule="evenodd" clip-rule="evenodd" d="M16.0305 7.48499C16.0305 9.9996 13.992 12.0381 11.4774 12.0381C8.96281 12.0381 6.92431 9.9996 6.92431 7.48499C6.92431 4.97038 8.96281 2.93188 11.4774 2.93188C13.992 2.93188 16.0305 4.97038 16.0305 7.48499ZM18.0305 7.48499C18.0305 11.1042 15.0966 14.0381 11.4774 14.0381C7.85824 14.0381 4.92431 11.1042 4.92431 7.48499C4.92431 3.86581 7.85824 0.931885 11.4774 0.931885C15.0966 0.931885 18.0305 3.86581 18.0305 7.48499ZM5.50303 14.1883C5.42152 14.1926 5.34159 14.2091 5.26537 14.2362L5.23663 14.2097C5.16854 14.2587 5.10107 14.3086 5.03424 14.3592L5.02223 14.3682C2.86156 16.0098 1.36824 18.4561 1.00932 21.2491L1.00699 21.2685C0.994824 21.3647 0.984 21.4612 0.974538 21.5582C0.920894 22.1078 1.37377 22.557 1.92605 22.557H21.0279C21.5802 22.557 22.0331 22.1078 21.9794 21.5582C21.6854 18.5449 20.0745 15.9088 17.718 14.2101L17.6892 14.2368C17.613 14.2096 17.533 14.1931 17.4515 14.1887C16.5389 14.1397 16.2092 14.4002 15.8979 14.8824C15.5825 15.3709 15.7843 16.0402 16.2523 16.3853C17.4721 17.2845 18.4136 18.5175 18.9389 19.9357H4.01485C4.54017 18.5173 5.48195 17.284 6.70207 16.3847C7.17005 16.0398 7.37201 15.3706 7.05676 14.8821C6.74565 14.4001 6.4158 14.1395 5.50303 14.1883Z" fill="#C0C0C0"/>
</svg>
