<svg width="83" height="83" viewBox="0 0 83 83" fill="none" xmlns="http://www.w3.org/2000/svg">
<defs>
<filter id="filter0_d_153_126" x="0" y="0" width="83" height="83" filterUnits="userSpaceOnUse" color-interpolation-filters="sRGB">
<feFlood flood-opacity="0" result="BackgroundImageFix"/>
<feColorMatrix in="SourceAlpha" type="matrix" values="0 0 0 0 0 0 0 0 0 0 0 0 0 0 0 0 0 0 127 0" result="hardAlpha"/>
<feOffset/>
<feGaussianBlur stdDeviation="6"/>
<feComposite in2="hardAlpha" operator="out"/>
<feColorMatrix type="matrix" values="0 0 0 0 0.729412 0 0 0 0 0 0 0 0 0 1 0 0 0 0.25 0"/>
<feBlend mode="normal" in2="BackgroundImageFix" result="effect1_dropShadow_153_126"/>
<feBlend mode="normal" in="SourceGraphic" in2="effect1_dropShadow_153_126" result="shape"/>
</filter>
<linearGradient id="paint0_linear_153_126" x1="41.5" y1="12" x2="41.5" y2="71" gradientUnits="userSpaceOnUse">
<stop stop-color="#BA00FF"/>
<stop offset="0.648958" stop-color="#6018D6"/>
<stop offset="1" stop-color="#0031AA"/>
</linearGradient>
</defs>
<g filter="url(#filter0_d_153_126)">
    <circle cx="41.5" cy="41.5" r="29.5" fill="white"/>
    <circle cx="41.5" cy="41.5" r="15.5" stroke="url(#paint0_linear_153_126)" stroke-width="28"/>
</g>
<path d="M39.9342 34.3076L41 35.3837L42.0658 34.3076C44.4528 31.8975 48.3168 31.8975 50.7038 34.3076C53.0987 36.7258 53.0987 40.6523 50.7038 43.0705L41 52.8684L31.2962 43.0705C28.9013 40.6523 28.9013 36.7258 31.2962 34.3076C33.6832 31.8975 37.5472 31.8975 39.9342 34.3076ZM40.6447 53.2271C40.645 53.2268 40.6453 53.2265 40.6456 53.2262L40.6447 53.2271Z" fill="white" stroke="white" stroke-width="3"/>
</svg>
