<svg width="24" height="24" viewBox="0 0 24 24" fill="none" xmlns="http://www.w3.org/2000/svg">
<path fill-rule="evenodd" clip-rule="evenodd" d="M21.2805 10.485C21.2805 15.1711 17.4817 18.9699 12.7956 18.9699C10.6669 18.9699 8.7213 18.1861 7.2317 16.8912C7.20143 16.6862 7.1074 16.4888 6.94959 16.331C6.79178 16.1732 6.59436 16.0791 6.38933 16.0489C5.09448 14.5593 4.3106 12.6137 4.3106 10.485C4.3106 5.79885 8.10945 2 12.7956 2C17.4817 2 21.2805 5.79885 21.2805 10.485ZM4.70808 17.1583C3.2104 15.3453 2.3106 13.0202 2.3106 10.485C2.3106 4.69428 7.00488 0 12.7956 0C18.5863 0 23.2805 4.69428 23.2805 10.485C23.2805 16.2757 18.5863 20.9699 12.7956 20.9699C10.2603 20.9699 7.93527 20.0701 6.12229 18.5725L1.70711 22.9877C1.31658 23.3782 0.683417 23.3782 0.292893 22.9877C-0.0976311 22.5972 -0.0976311 21.964 0.292893 21.5735L4.70808 17.1583Z" fill="url(#paint0_linear_153_163)"/>
<defs>
<linearGradient id="paint0_linear_153_163" x1="11.6403" y1="0" x2="11.6403" y2="23.2806" gradientUnits="userSpaceOnUse">
<stop stop-color="#BA00FF"/>
<stop offset="1" stop-color="#0031AA"/>
</linearGradient>
</defs>
</svg>
